<svg width="260" height="96" viewBox="0 0 260 96" fill="none" xmlns="http://www.w3.org/2000/svg">
<g clip-path="url(#clip0)">
<rect width="260" height="96" fill="none"/>
<path d="M42.5625 35.0312C38.9531 35.0312 36.6328 36.3438 35.1562 38.2188L35.0391 35.5H29.25V67.375H35.25V55.6328C36.75 57.3438 39.2578 58.4688 42.5625 58.4688C48.9375 58.4688 53.4609 53.6406 53.4609 46.8438C53.4609 40 48.9375 35.0312 42.5625 35.0312ZM35.2266 46.8203C35.2266 43.2344 37.7812 40.4219 41.3438 40.4219C44.9297 40.4219 47.4375 43.1875 47.4375 46.8203C47.4375 50.3828 44.9062 53.0781 41.3438 53.0781C37.8047 53.0781 35.2266 50.3828 35.2266 46.8203ZM67.5703 58.4688C71.0625 58.4688 73.4297 57.1562 74.9062 55.2812L75.0234 58H80.9062V35.5H75.0234L74.9062 38.2188C73.4297 36.3672 71.0625 35.0312 67.5703 35.0312C61.3828 35.0312 56.7188 39.8828 56.7188 46.7031C56.7188 53.5234 61.3828 58.4688 67.5703 58.4688ZM74.8828 46.7031C74.8828 50.3125 72.3281 53.125 68.7422 53.125C65.1328 53.125 62.6953 50.3125 62.6953 46.7031C62.6953 43.1172 65.1328 40.3984 68.7422 40.3984C72.3281 40.3984 74.8828 43.1172 74.8828 46.7031ZM94.8281 44.2656C92.1328 43.7734 91.1484 43.2109 91.1484 42.1094C91.1484 40.7734 92.5781 40.0703 95.5312 40.0703C97.6875 40.0703 100.688 40.6328 102.328 41.3359L102.844 36.4375C100.828 35.5469 98.0391 35.0312 95.2266 35.0312C89.25 35.0312 85.3594 37.9141 85.3594 42.1094C85.3594 45.8359 87.4688 48.0391 91.8047 48.7891L94.5 49.3047C97.125 49.7734 98.0859 50.3594 98.0859 51.5547C98.0859 52.8906 96.8438 53.5 93.9141 53.5C91.6172 53.5 88.5703 52.8672 86.3438 51.9297L85.7109 56.8516C87.75 57.8594 91.0078 58.4688 94.3828 58.4688C100.148 58.4688 103.898 55.9609 103.898 51.4375C103.898 47.5469 101.672 45.5312 97.2188 44.7109L94.8281 44.2656ZM116.438 44.2656C113.742 43.7734 112.758 43.2109 112.758 42.1094C112.758 40.7734 114.188 40.0703 117.141 40.0703C119.297 40.0703 122.297 40.6328 123.938 41.3359L124.453 36.4375C122.438 35.5469 119.648 35.0312 116.836 35.0312C110.859 35.0312 106.969 37.9141 106.969 42.1094C106.969 45.8359 109.078 48.0391 113.414 48.7891L116.109 49.3047C118.734 49.7734 119.695 50.3594 119.695 51.5547C119.695 52.8906 118.453 53.5 115.523 53.5C113.227 53.5 110.18 52.8672 107.953 51.9297L107.32 56.8516C109.359 57.8594 112.617 58.4688 115.992 58.4688C121.758 58.4688 125.508 55.9609 125.508 51.4375C125.508 47.5469 123.281 45.5312 118.828 44.7109L116.438 44.2656ZM143.109 58.4688C149.484 58.4688 154.008 53.5234 154.008 46.7266C154.008 39.8828 149.484 35.0312 143.109 35.0312C139.5 35.0312 137.18 36.3438 135.703 38.2188V24.9766H129.797V58H135.68L135.797 55.6094C137.25 57.3203 139.805 58.4688 143.109 58.4688ZM135.773 46.7031C135.773 43.1172 138.352 40.4219 141.891 40.4219C145.477 40.4219 147.984 43.0703 147.984 46.7031C147.984 50.2656 145.453 53.0781 141.891 53.0781C138.328 53.0781 135.773 50.2656 135.773 46.7031ZM168.117 58.4688C171.609 58.4688 173.977 57.1562 175.453 55.2812L175.57 58H181.453V35.5H175.57L175.453 38.2188C173.977 36.3672 171.609 35.0312 168.117 35.0312C161.93 35.0312 157.266 39.8828 157.266 46.7031C157.266 53.5234 161.93 58.4688 168.117 58.4688ZM175.43 46.7031C175.43 50.3125 172.875 53.125 169.289 53.125C165.68 53.125 163.242 50.3125 163.242 46.7031C163.242 43.1172 165.68 40.3984 169.289 40.3984C172.875 40.3984 175.43 43.1172 175.43 46.7031ZM195.375 44.2656C192.68 43.7734 191.695 43.2109 191.695 42.1094C191.695 40.7734 193.125 40.0703 196.078 40.0703C198.234 40.0703 201.234 40.6328 202.875 41.3359L203.391 36.4375C201.375 35.5469 198.586 35.0312 195.773 35.0312C189.797 35.0312 185.906 37.9141 185.906 42.1094C185.906 45.8359 188.016 48.0391 192.352 48.7891L195.047 49.3047C197.672 49.7734 198.633 50.3594 198.633 51.5547C198.633 52.8906 197.391 53.5 194.461 53.5C192.164 53.5 189.117 52.8672 186.891 51.9297L186.258 56.8516C188.297 57.8594 191.555 58.4688 194.93 58.4688C200.695 58.4688 204.445 55.9609 204.445 51.4375C204.445 47.5469 202.219 45.5312 197.766 44.7109L195.375 44.2656ZM228.211 51.4844C225.984 52.5391 223.383 53.1953 220.594 53.1953C216.891 53.1953 214.078 51.6953 213.469 48.5547H229.734C231.211 40.2344 225.961 35.0312 219.047 35.0312C212.367 35.0312 207.492 39.8594 207.492 46.75C207.492 53.7578 212.602 58.4688 220.57 58.4688C223.852 58.4688 226.875 57.6016 229.055 56.3594L228.211 51.4844ZM213.562 44.5234C213.82 41.9688 215.977 40.0938 219.188 40.0938C222.281 40.0938 224.18 42.0156 224.344 44.5234H213.562Z" fill="#202F44"/>
</g>
<defs>
<clipPath id="clip0">
<rect width="260" height="96" fill="none"/>
</clipPath>
</defs>
</svg>
